<svg enable-background="new 0 0 436.907 436.907" viewBox="0 0 436.907 436.907" height="512" width="512" xmlns="http://www.w3.org/2000/svg">

<circle style="fill:#EFC84A;" cx="218.453" cy="218.453" r="200.453"/>
<path style="opacity:0.1;enable-background:new;" d="m333.341,129.31996l-0.068,-0.034c-0.546,-0.512 -1.229,-0.819 -2.014,-0.819c-1.638,0 -2.969,1.331 -2.969,3.004c0,6.519 -33.861,6.519 -33.861,0c0,-1.673 -1.331,-3.004 -2.969,-3.004c-1.673,0 -3.004,1.331 -3.004,3.004l0,17.272c0,-1.639 -1.331,-3.004 -3.003,-3.004c-1.638,0 -2.97,1.365 -2.97,3.004c0,3.208 -8.123,4.813 -16.418,4.881l-24.2,-24.167c-0.546,-0.58 -1.297,-0.99 -2.185,-0.99c-1.638,0 -3.004,1.331 -3.004,3.004c0,4.983 -19.798,6.144 -29.082,3.516l-5.53,-5.53l-0.034,0c-0.547,-0.58 -1.298,-0.99 -2.185,-0.99c-1.638,0 -2.969,1.331 -2.969,3.004l0,17.272c0,-1.639 -1.332,-3.004 -3.004,-3.004c-1.638,0 -2.969,1.365 -2.969,3.004c0,3.208 -8.124,4.813 -16.418,4.881l-24.201,-24.167c-0.546,-0.58 -1.331,-0.99 -2.184,-0.99c-1.673,0 -3.004,1.331 -3.004,3.004c0,4.983 -19.797,6.144 -29.081,3.516l-5.53,-5.53l-0.034,0c-0.546,-0.58 -1.297,-0.99 -2.185,-0.99c-1.638,0 -2.97,1.331 -2.97,3.004l0,158.276l-14.847,0l0,19.422l113.25741,109.13588c117.52751,7.69505 211.4865,-80.45244 215.06648,-196.01144l-85.36289,-92.90544c-0.034,-0.035 -0.034,-0.035 -0.069,-0.068z"/>
<g>
	<path style="fill:#E56353;" d="M108.272,128.108c-1.65,0-2.987,1.337-2.987,2.987v158.296h5.973V131.095   C111.259,129.446,109.922,128.108,108.272,128.108z"/>
	<path style="fill:#E56353;" d="M148.091,128.108c-1.65,0-2.987,1.337-2.987,2.987v158.296h5.973V131.095   C151.078,129.446,149.741,128.108,148.091,128.108z"/>
</g>
<path style="fill:#E1E6E9;" d="M145.105,289.39h-33.846l0-158.295c0,6.53,33.846,6.53,33.846,0L145.105,289.39z"/>
<g>
	<path style="fill:#3EA69B;" d="M154.065,145.389c-1.65,0-2.987,1.337-2.987,2.987v158.296h5.973V148.375   C157.051,146.726,155.714,145.389,154.065,145.389z"/>
	<path style="fill:#3EA69B;" d="M193.884,145.389c-1.65,0-2.987,1.337-2.987,2.987v158.296h5.973V148.375   C196.871,146.726,195.533,145.389,193.884,145.389z"/>
</g>
<path style="fill:#E1E6E9;" d="M190.897,306.671h-33.846l0-158.295c0,6.53,33.846,6.53,33.846,0L190.897,306.671z"/>
<g>
	<path style="fill:#F6C358;" d="M199.857,128.108c-1.65,0-2.987,1.337-2.987,2.987v158.296h5.973V131.095   C202.844,129.446,201.507,128.108,199.857,128.108z"/>
	<path style="fill:#F6C358;" d="M239.676,128.108c-1.65,0-2.987,1.337-2.987,2.987v158.296h5.973V131.095   C242.663,129.446,241.326,128.108,239.676,128.108z"/>
</g>
<path style="fill:#E1E6E9;" d="M236.69,289.39h-33.846l0-158.295c0,6.53,33.846,6.53,33.846,0L236.69,289.39z"/>
<g>
	<path style="fill:#64798A;" d="M291.448,128.108c-1.65,0-2.987,1.337-2.987,2.987v158.296h5.973V131.095   C294.435,129.446,293.097,128.108,291.448,128.108z"/>
	<path style="fill:#64798A;" d="M331.267,128.108c-1.65,0-2.987,1.337-2.987,2.987v158.296h5.973V131.095   C334.254,129.446,332.917,128.108,331.267,128.108z"/>
</g>
<path style="fill:#E1E6E9;" d="M328.28,289.39h-33.846l0-158.295c0,6.53,33.846,6.53,33.846,0L328.28,289.39z"/>
<g>
	<path style="fill:#27A2DB;" d="M245.65,145.389c-1.65,0-2.987,1.337-2.987,2.987v158.296h5.973V148.375   C248.636,146.726,247.299,145.389,245.65,145.389z"/>
	<path style="fill:#27A2DB;" d="M285.469,145.389c-1.65,0-2.987,1.337-2.987,2.987v158.296h5.973V148.375   C288.456,146.726,287.118,145.389,285.469,145.389z"/>
</g>
<path style="fill:#E1E6E9;" d="M282.482,306.671h-33.846l0-158.295c0,6.53,33.846,6.53,33.846,0L282.482,306.671z"/>
<rect x="90.453" y="289.382" style="fill:#DC8744;" width="256" height="19.408"/>
<g>
</g>
<g>
</g>
<g>
</g>
<g>
</g>
<g>
</g>
<g>
</g>
<g>
</g>
<g>
</g>
<g>
</g>
<g>
</g>
<g>
</g>
<g>
</g>
<g>
</g>
<g>
</g>
<g>
</g>
</svg>
